<?xml version="1.0" encoding="utf-8"?>
<!-- Generator: Adobe Illustrator 23.0.1, SVG Export Plug-In . SVG Version: 6.00 Build 0)  -->
<svg version="1.1" id="Layer_1" xmlns="http://www.w3.org/2000/svg" xmlns:xlink="http://www.w3.org/1999/xlink" x="0px" y="0px"
	 viewBox="0 0 165.8 71.1" style="enable-background:new 0 0 165.8 71.1;" xml:space="preserve">
<style type="text/css">
	.st0{fill:#3EBDA9;}
	.st1{fill:#424146;}
</style>
<title>logo</title>
<g>
	<g id="Layer_3">
		<path class="st0" d="M154.1,29.6c-0.2-0.8-0.3-1.6,0-2.3c0.3-1.1,2.5-0.9,2.7,0.2c0,0.1,0,0.2,0,0.3l0.3-0.2
			c0.9-0.4,1.9-0.1,2.5,0.7c0.3,0.5,0.2,1-0.1,1.4c-0.2,0.4-0.5,0.7-0.9,0.9c-0.7,0.5-1.6,0.7-2.5,0.6
			C155.2,31.1,154.4,30.4,154.1,29.6z"/>
		<path class="st0" d="M46.1,40.2c-0.3,0.7-0.7,1.3-1.1,1.9c-0.8,1.3-1.8,2.6-2.8,3.7c-1.1,1.3-2.4,2.5-3.8,3.5c0,0.1,0,0.2,0,0.2
			c0,3.2,0.1,6.4,0.3,9.6s0.6,6.3,0.1,9.3c-0.2,1.1-2.3,1.4-2.6,0.2c-0.9-3-0.9-6.4-1-9.6c-0.1-2.6-0.2-5.2-0.3-7.9
			c-1,0.1-2.2-1-0.9-1.5l0.9-0.3c0-3.6,0-7.2,0.2-10.8c-0.3,1.3-0.5,2.6-0.8,3.9c-0.5,2.6-1.4,7.4-4.6,8c-4.1,0.8-5.2-4.1-5.5-7.1
			c-0.4-3.4,0.3-7.6,2.7-10.2c1.3-1.5,3.2-2.2,5.1-2c1,0.1,1.9,0.5,2.7,1c0.3,0.2,0.7,0.4,1,0.6c0.1-0.7,0.2-1.4,0.2-2.1
			c0.3-2.1,3.5-1.3,3.6,0l0,0c-0.7,5.6-1,11.2-1,16.8c1.1-0.7,2.1-1.6,3-2.6c0.9-1.1,1.8-2.2,2.5-3.5c0.4-0.7,0.8-1.3,1.2-2
			c0.2-0.6,0.6-1.1,1-1.5c0.2-0.1,0.6-0.1,0.6,0.2C46.8,39,46.5,39.6,46.1,40.2z M34.9,34.3c-1.5-0.2-3.2-1.3-4.5-0.3
			c-1.3,1-2,3-2.3,4.4c-0.4,1.8-0.5,3.7-0.2,5.5c0.2,1.4,0.6,3.6,1.6,4.6c1.1,1,2.5-2.8,2.7-3.6c0.6-2,1-4,1.4-6
			C33.9,37.4,34.3,35.9,34.9,34.3z"/>
		<path class="st0" d="M55.9,44.3c-0.3,1.8-0.9,3.6-1.7,5.2c-1.2,2.4-3.5,3.9-6.1,2.3c-2.7-1.6-3.3-5.1-3.3-8
			c-0.1-3.6,0.2-7.2,0.3-10.7l0.1-4.2c-1,0-1.9,0-2.9-0.1c-1.3-0.2-0.5-1.4,0.5-1.3c0.8,0,1.6,0,2.4,0c0-1.9,0.1-3.8,0.2-5.7
			c-0.5-1.5,3.7-2.3,3.6-0.2c-0.1,1.9-0.1,3.9-0.2,5.8h4.1c1.3,0,1.3,1.5,0,1.5h-4.1L48.7,34c-0.3,3.8-0.3,7.5-0.2,11.3
			c0.1,1.6,0.5,3.2,1.2,4.7c0.3,0.6,0.7,1.2,1.4,1c0.9-0.2,1.6-1.3,2-2c0.7-1.6,1.3-3.3,1.5-5c0.3-1.8,0.3-3.7,0.7-5.6
			c0.1-0.6,1.3-0.4,1.3,0.1C56.7,40.5,56.4,42.4,55.9,44.3z"/>
		<path class="st0" d="M75.4,39c-1.4,3.6-4,6.4-6.7,9.1c-0.1,2.4-0.3,4.7-0.4,7.1c-0.3,4.4-0.5,9.4-3,13.1c-0.9,1.6-2.7,2.5-4.6,2.2
			c-2.6-0.5-3.5-3.5-3.5-5.9c0-5.6,2.8-10.4,6.8-14.1l1-0.9c0.2-4,0.1-7.9,0-11.8l-0.1,0.8c-0.4,2.5-1,5-1.8,7.4
			c-0.5,1.3-1.1,3.2-2.5,3.7c-1.6,0.5-3.3,0-4.3-1.2c-1.1-1.5-1.2-3.8-1.3-5.7c-0.1-2.2,0-4.4,0.2-6.6c0.1-1.1,0.3-2.3,0.5-3.4
			c0.1-0.8,0.7-1.5,1.6-1.6c0.6-0.2,1.9,0.1,2.1,0.9c0.1,0.3,0.1,0.6,0,0.8c-0.2,0.8-0.4,1.7-0.4,2.5c-0.1,1.1-0.2,2.1-0.3,3.2
			c-0.1,1.9-0.1,3.9,0.1,5.8c0.1,1.3,0.4,3,1.6,3.7c0.1,0,0.2,0.1,0.2,0.1l0,0c0.2-0.1,0.4-0.3,0.6-0.5c1-1.6,1.6-3.3,1.9-5.1
			c0.9-3.6,1.2-7.4,2.1-11c0-0.2,0-0.4,0-0.7c0-1.7,3.4-1.7,3.6,0c0.4,5.1,0.5,10.2,0.3,15.3c2.2-2.1,4-4.6,5.3-7.4
			C74.3,38.2,75.7,38.4,75.4,39z M64.9,51.9c-1.1,1.1-2.1,2.4-3,3.7c-1.5,2.5-2.3,5.2-2.5,8.1c-0.1,1.3,0.1,2.6,0.6,3.7
			c0.3,0.6,0.9,1.5,1.6,1.2c1.3-0.6,1.7-3,2-4.2C64.4,60.3,64.8,56.1,64.9,51.9z"/>
		<path class="st0" d="M96.8,41.5c-0.3,1.3-0.6,2.6-1,3.9c-0.9,3.1-3,9.7-7.5,7.3c-3.2-1.6-3.1-6.7-3.2-9.8c0-2.1,0.1-4.2,0.2-6.2
			c0-0.4,0.1-0.9,0.1-1.3c-0.2,0.5-0.4,1-0.6,1.6c-0.7,2.1-1,4.3-1.4,6.5c-0.5,2.6-1.4,7.4-4.6,8c-4.1,0.8-5.2-4.1-5.5-7.1
			c-0.4-3.4,0.3-7.6,2.7-10.2c1.3-1.5,3.2-2.2,5.1-2c1,0.1,1.9,0.5,2.7,1c0.3,0.2,0.6,0.4,1,0.6c0.3-0.6,0.7-1.2,1.1-1.8
			c0.1-0.5,0.3-0.9,0.5-1.3c0.5-0.5,1.2-0.7,1.8-0.5l0,0c0.5,0.1,1.2,0.5,1.1,1.1c0.1,0.1,0.2,0.3,0.1,0.5l-0.1,0.9
			c-0.1,0.6-0.1,1.2-0.2,1.8c-0.1,1-0.2,2.1-0.2,3.1c-0.1,2.2-0.2,4.4-0.1,6.6c-0.1,2,0.3,4,1.2,5.8c0.1,0.3,0.3,0.5,0.6,0.7
			c0.2,0.1,0.2,0.1,0,0l0.2,0.1c0.1,0,0.2,0,0.3-0.1c1.9-1.3,2.7-3.8,3.3-5.9c0.4-1.2,0.7-2.4,0.9-3.6c0.1-1,0.4-1.9,0.6-2.9
			c0.2-0.5,1.2-0.4,1.2,0.1C97.2,39.5,97.1,40.5,96.8,41.5z M83.9,35.3c-1.5-0.2-3.2-1.3-4.5-0.3s-2,3-2.3,4.4
			c-0.4,1.8-0.5,3.7-0.2,5.5c0.2,1.4,0.5,3.6,1.6,4.6c1.2,1.2,2.5-2.8,2.7-3.6c0.6-2,1-4,1.4-6C82.9,38.4,83.4,36.9,83.9,35.3
			L83.9,35.3z"/>
		<path class="st1" d="M115.1,42.6c-3,6.5-10.2,10.9-17.4,9.1c-0.7-0.2-1.6-0.7-1.3-1.6c0.5-0.8,1.4-1.1,2.2-0.9
			c3.5,0.7,7.1-0.3,9.6-2.7c2.7-2.6,4.5-6.1,5-9.9c0.7-4,0.1-8.1-1.9-11.6c-0.8-1.6-2.2-2.8-3.9-3.5c-2.3-0.8-4.6-0.1-6.9,0
			c-0.6,0-1.1-0.7-0.4-1c4-1.3,8.7-1.3,12.1,1.3C118.3,26.4,118,36.3,115.1,42.6z M99.7,41.2c-0.1-2-0.1-4.1,0-6.1
			c0-4.2,0.2-8.3,0.5-12.4c0.1-0.5,0.4-0.9,0.9-1.1c0.6-0.2,1.2-0.2,1.8,0c0.4,0.2,0.9,0.6,0.9,1.1c-0.3,4.1-0.5,8.3-0.5,12.4
			c0,2,0,4.1,0,6.1c0,1.1,0,2.1,0,3.2s0,1.7-0.9,2.3c-0.4,0.3-0.9,0.3-1.4,0c-0.9-0.5-1-1.3-1.1-2.3C99.8,43.4,99.7,42.2,99.7,41.2z
			"/>
		<path class="st1" d="M136.5,38.6c-2.1,1.7-4.7,2.8-7.4,3.1c-0.1,0.5-0.1,1.1-0.2,1.6c-0.3,1.5-0.7,3-1.2,4.5
			c-0.4,1.2-1,2.3-1.8,3.3c-2.4,2.4-5.8,0.1-7.1-2.2c-1.8-3.4-2-7.5-0.6-11.1c-1-1.7-1.1-3.7-0.3-5.5c0.8-2.5,3.2-4.2,5.9-4
			c2.8,0.3,4.4,2.6,5,5.2c0.5,2.3,0.7,4.7,0.5,7.1c2.3-0.3,4.6-1.2,6.5-2.7C136.2,37.7,137.1,38.1,136.5,38.6z M126.9,33.9
			c-0.4-1.9-1.8-4.7-4.3-4.2c-2.5,0.5-3.6,3.5-3.4,5.6c0,0.1,0,0.1,0,0.2c0.5-1,1.2-1.9,1.9-2.7c1-1.2,4.4-0.2,3.1,1.3
			c-1.2,1.4-2.2,3.1-2.7,5c0.5,0.3,1,0.6,1.6,0.9c1.3,0.5,2.8,0.8,4.2,0.9C127.6,38.5,127.4,36.2,126.9,33.9z M127.2,41.8
			c-2.1,0.1-4.2-0.4-6-1.4c-0.4,2.2-0.2,4.5,0.6,6.6c0.3,0.9,0.9,2.2,1.8,2.6c0.9,0.4,1.5-0.7,1.8-1.4C126.3,46.2,127,44,127.2,41.8
			L127.2,41.8z"/>
		<path class="st1" d="M155.3,38.3c-0.3,1.4-1.6,2.8-2.5,3.7c-1.1,1-2.2,2-3.5,2.7c-2.6,1.6-5.8,2.3-8.8,1.9c-1-0.1-1.9-0.6-2.5-1.4
			c0,1.4,0.1,2.8,0.1,4.2c0.1,1.7-3.6,1.7-3.6,0c-0.1-4-0.3-8.1-0.2-12.1c0.1-2.9,0.6-19.4,6.4-16.4c1.2,0.6,1.2,2.1,1.2,3.3
			c-0.1,1.5-0.3,3-0.7,4.5c-0.7,2.4-1.7,4.7-3.2,6.7c-0.1,1.5-0.1,3-0.1,4.5l0.1-0.3c1.9-2.8,4.8-4.8,8.1-5.3c1.2-0.2,2,1.2,0.6,1.5
			c-2.6,0.5-4.8,1.9-6.4,4c-0.9,1.1-1.3,2.6-1,4c0.5,1.4,1.7,1.7,3.1,1.6c2.4,0,4.8-0.7,6.9-2c1.1-0.6,2-1.4,2.9-2.4
			c0.8-0.9,1.3-2,2.1-2.8C154.5,37.9,155.4,37.8,155.3,38.3z M138.3,32.3c0.8-1.6,1.4-3.3,1.8-5.1c0.2-0.9,0.3-1.8,0.4-2.7
			c0.1-0.6,0-1.1-0.2-1.6l-0.1-0.1c-0.1,0.7-0.4,1.4-0.5,2.1c-0.2,0.9-0.4,1.8-0.6,2.7C138.7,29,138.5,30.6,138.3,32.3L138.3,32.3z"
			/>
		<path class="st1" d="M163.6,38.6c-0.5,2-0.9,4.1-1.6,6.1s-1.4,4.3-2.9,5.8c-0.1,0.1-0.3,0.3-0.4,0.4l-0.1,0.1h-0.1
			c-0.3-0.1-0.5-0.4-0.6-0.6c-0.8-1.4-0.9-3.4-1-5c-0.4-3.6-0.2-7.3,0.5-10.9c0.4-1.8-3.2-2.2-3.5-0.7c-0.9,4.4-1.1,8.9-0.4,13.3
			c0.3,2,0.6,4,2.4,5c1.1,0.7,2.5,0.7,3.7,0c1.6-1.4,2.6-3.8,3.3-5.8c0.5-1.3,0.9-2.7,1.3-4c0.4-1.2,0.6-2.4,0.6-3.6
			C164.7,38.2,163.7,38.1,163.6,38.6z"/>
		<path class="st0" d="M160.4,26.3L160.4,26.3z"/>
		<path class="st1" d="M22.8,10.1l0.3,0.5v0.7c0,0.6-0.7,1.7-2,3.3v0.2c0,0.2,0.1,0.3,0.3,0.3h0.2c1.6-0.2,2.4-0.3,2.4-0.3V15
			c-0.2,0.4-1.6,1.1-4.3,2.3c-0.3,0.7-0.5,1.2-0.5,1.5c0,0.6,1,1.7,3,3.1c1.2,2.5,1.9,4,2.1,4.3c0.3,0,0.5,0,0.5,0.1
			c0.5-0.1,1.7-0.2,3.8-0.3c0.4,0,1.6,0.4,3.4,1.3c1.5,0,2.3,0.8,2.3,2.3c0,0.3-0.4,0.4-1.1,0.5l-4.6-2.1h-0.2
			c-0.5,0-2.1,0.7-4.7,2.1c-0.6-0.2-1-0.3-1.2-0.3c-0.2,0.1-0.4,0.2-0.5,0.2c0,0.3,0.4,2,1.1,5.2c-0.3,0.9-0.6,1.3-0.8,1.3h-0.7
			c-0.4,0-0.9-1.5-1.6-4.4h-0.2c-2.6,2.2-4.3,3.3-5.1,3.3v0.3c0.7,1.5,1.2,4,1.5,7.7c0.4,0.2,0.7,0.3,1,0.3l2.3-0.7h0.3
			c0.8,0.6,1.2,1.1,1.2,1.5c0,0.5-0.8,0.9-2.5,1h-0.7c-2.1,0-3.5-0.3-4.2-1l0.3-2.6c0-1.3-0.6-2-1.8-2h-1.5c-1.1,0-1.8,1.1-2.1,3.3
			l-2.3,2.6c0.4,1,0.9,1.6,1.5,1.8l1-0.2c0.7,0,1.2,0.3,1.5,1c-0.5,0.9-1.2,1.3-2.1,1.3c-1.6-1-3.1-2.5-4.4-4.6
			c1.4-1.5,2.3-2.3,2.6-2.3c-0.3-0.8-0.6-2.1-0.8-3.8c0.1-1,0.4-2.1,0.8-3.3c-4-1.4-6.1-3.5-6.1-6.2c0-1.5,0.9-2.9,2.8-4.4
			C3.4,25,3.6,25,3.7,25l0.2,0.3v0.2c-1.1,1.1-1.6,1.9-1.6,2.4v0.5c0,2.6,1.2,4.3,3.6,5.1c0.8,0.2,1.4,0.3,1.6,0.3
			c0-0.2,1.3-1.6,3.9-4.1c1.3-2.2,2.3-4.6,3-7.2c0.5-0.6,0.8-1.4,0.8-2.4c0-0.4-0.5-0.8-1.5-1.1v-0.2c0.3-1.1,0.5-1.8,0.5-2.3
			c-1.2-0.7-1.8-1.3-1.8-1.8h0.2c0.2,0,0.4-0.3,0.5-1h2.4c1.9-1.6,3.1-2.5,3.6-2.5l0.8,0.5C21.3,10.7,22.3,10.1,22.8,10.1z"/>
	</g>
</g>
</svg>
